<?xml version="1.0" encoding="utf-8"?>
<!-- Generator: Adobe Illustrator 22.0.1, SVG Export Plug-In . SVG Version: 6.00 Build 0)  -->
<svg version="1.1" id="Слой_1" xmlns="http://www.w3.org/2000/svg" xmlns:xlink="http://www.w3.org/1999/xlink" x="0px" y="0px"
	 viewBox="0 0 1068.9 454.2" style="enable-background:new 0 0 1068.9 454.2;" xml:space="preserve">
<style type="text/css">
	.st0{fill:#549BC6;}
	.st1{enable-background:new    ;}
</style>
<title>logo_2</title>
<path class="st0" d="M0.2,197v197h283.7l19.2,10.6c40.7,22.5,90.4,49.6,90.7,49.6s0.3-23,0.3-51.1V352h-42l-0.1,16.2l-0.2,16.2
	l-27.7-15.2c-15.2-8.3-28.4-15.6-29.3-16.2c-1.6-1-9.9-1.1-127.2-1.1H42.2V42.1H352v217.6h-33.6c-26.7,0-33.5-0.2-33.1-0.8
	c0.3-0.4,2.1-3.1,4-6.1c8.1-12.4,13.7-26.2,16.4-40.7c1.8-10.3,1.8-27.5,0-37.8c-10.5-59-66.9-98.3-125.9-87.7
	c-44.7,8-79.7,43-87.7,87.7c-1.8,10.3-1.8,27.5,0,37.8c8.7,48.1,47.7,84.1,96.7,89c4.2,0.4,41,0.6,105.8,0.6H394V0H0v197H0.2z
	 M210.4,127.7c27.6,4.9,49.3,26.6,54.2,54.2c7.1,40.5-24.4,77.8-65.6,77.8c-32.3,0-60-23.3-65.6-55.1c-6.3-35.7,18-70.4,53.8-76.9
	C194.9,126.6,202.7,126.6,210.4,127.7z"/>
<path d="M635.1,1.1c-7.3,2.7-13.1,8.5-15.7,15.8c-2.2,5.5-2.5,11.4-2.5,45.2c0,37.6,0.1,39,3,44.6c5.7,10.5,15.5,15.7,30.2,15.7
	c15.1,0,26.3-6,30.8-16.5c1.2-2.8,2.4-11.5,2.8-20.5l0.8-15.7h-28.1v7.9c0,12.2-2.4,18.3-5.4,20c-2.1,1.1-2.3,1-4.4-1
	c-2.5-2.2-2.6-4.6-2.6-35.4c0-28.1,0.3-33.3,2.2-35.1c2.6-2.6,3.5-2.8,6.5-0.6c1.7,1.2,2.6,4.9,3.2,12.5l1,10.8h25.9V34.9
	c0-20.2-3.2-26.8-15.9-32.7C658.8-1.5,644-2.1,635.1,1.1z"/>
<path d="M433.3,60.6V121h22.5c27.4,0,31.6-1.4,38-12.9c3.9-6.9,4-8,4-24.5c0-19.1-1.1-22.7-9-27.4l-3.9-2.5l4-2.4
	c6.4-3.6,8.6-10.5,7.9-24.8c-0.6-13-2.2-16.8-10-22.5c-3.5-2.6-6.1-2.9-28.7-3.3l-24.8-0.6V60.6z M467.9,21.2
	c1.5,1,2.1,3.7,2.1,10.1c0,9.8-1.9,13.4-7.1,13.4c-3.2,0-3.3-0.3-3.3-12.5s0.1-12.6,3.2-12.6c0.9,0,2.2,0.1,3.3,0.5
	C466.9,20.4,467.4,20.9,467.9,21.2z M468.5,66c1.9,1.4,2.8,4.4,3.2,11.6c1,13.4-0.1,19-4.6,20.9c-7.3,3.5-7.5,3.2-7.5-16.4
	c0-17.9,0-18,3.2-18C464.8,64.3,466.8,64.9,468.5,66z"/>
<path d="M510.8,60.7V121h26.3V0.4h-26.4L510.8,60.7L510.8,60.7z"/>
<path d="M548,12.2V24h15.2v97H591V24h15.2V0.4H548V12.2z"/>
<path d="M699.9,60.8v59.4c0,0.5,0.4,0.9,0.9,0.9h24.7c0.5,0,0.9-0.4,0.9-0.9V94.1c0-29,0.4-30.5,6.8-27c2.8,1.4,2.9,2.6,2.9,27.7
	v25.4c0,0.5,0.4,0.9,0.9,0.9h26c0.5,0,0.9-0.4,0.9-0.9V96.1c0-26.8-1.1-33-6.8-36c-2.9-1.5-2.9-1.5,1.1-5c6-5,7.5-11.2,6.8-26.3
	c-0.8-14.4-3.2-20.1-10.8-25.1c-4.3-3-6-3.2-29.3-3.2h-24c-0.5,0-0.9,0.4-0.9,0.9L699.9,60.8L699.9,60.8z M736.7,25.8
	c1.3,2.9,1.6,14.1-0.7,16.7c-1.3,1.5-3.1,2.4-5.1,2.4c-3.2,0-3.7-1.4-3.7-12.3l0.1-9.8c0-0.9,0.3-2.5,1.4-2.5l2.2,0.1l1.7,0.3
	c2.1,0.3,3.5,2.9,4,4.8L736.7,25.8z"/>
<path d="M772.4,1c0,0.1,4.7,18.3,10.4,40.1l10.4,39.5V121h26.4V80.6L830,41.1c5.7-21.8,10.4-39.9,10.4-40.1s-6.1-0.6-13.6-0.6h-13.6
	l-2.6,15.5c-4,24.5-4,24.5-7.6,3.5l-3.3-19h-13.6C778.5,0.4,772.4,0.7,772.4,1z"/>
<path d="M851.9,60.7V121h26.4V72.4h9.4c13.2,0,20.5-3.9,25.2-13.2c3-6.2,3.5-8.6,3.3-22.2c0-20.9-3.5-28.8-15.1-34.1
	c-4.6-2.2-9.1-2.6-27.3-2.6h-21.9L851.9,60.7L851.9,60.7z M886.5,25.4c2.2,2.2,2.8,4.6,2.8,11.1c0,9-2.9,13.9-8.3,13.9
	c-2.6,0-2.8-1-2.8-13.9s0-13.2,2.9-13.5C883.2,23,885,23.9,886.5,25.4z"/>
<path d="M926.4,12.2V24h15.2v97h27.8V24h15.2V0.4h-58.2V12.2z"/>
<path class="st0" d="M978.8,152.7c-15.7,3.4-30.1,13.6-36.8,26.1c-6.4,12-9.2,32.9-6.3,47.2c4.1,20.3,10.1,28.1,45.7,59.4
	c19,16.7,23.8,21.8,27.5,29.3c5.7,11.6,5.5,27.1-0.5,32.8c-3.4,3.4-8.5,4.3-12.8,2.2c-5.9-3-8.2-12.4-8.3-32.9v-11.7h-53v14.7
	c0,33.4,4.7,50.1,17.4,62.9c10.6,10.6,24,15.2,46.6,16.1c37.1,1.5,57.2-12.2,65.2-44.2c1.9-7.7,2.2-11.8,2.2-28
	c0.1-21.9-0.6-25.2-8.2-40c-6.2-11.9-14.5-20.5-39.2-40.5c-26.6-21.5-32-27.6-32-36c0-10.6,13.2-15.8,20.3-8c2.2,2.5,2.7,4,2.7,8.3
	c0,3,0.2,5.9,0.6,8.9l0.7,3.8h54l-0.6-10.8c-2-33.7-15.8-52.5-43.8-59.2C1009.9,150.7,989.5,150.5,978.8,152.7z"/>
<path class="st0" d="M433.3,274.6v121.5h53l0.1-58.8c0.1-58.6,0.1-58.7,1.9-51.2c1,4.1,6.8,30.6,13,58.7l11.3,51.3h52.7v-243h-52
	l-0.2,56.6l-0.3,56.5l-12-56.5l-11.9-56.6h-55.6V274.6z"/>
<path class="st0" d="M591.3,274.6v121.5h111v-47h-56v-56h51v-46h-51v-47h53v-47h-108V274.6z"/>
<path class="st0" d="M711.8,157.3c0.3,2.4,6.6,55.6,14,118.3s13.7,115.5,14,117.3l0.6,3.2l32.7-0.2l32.7-0.3l6-55.2
	c3.3-30.3,6.2-55.4,6.5-55.7c0.5-0.4,13.2,107.7,13,110.6c0,0.5,14.6,0.8,32.5,0.8s32.5-0.2,32.5-0.5s6.5-54.7,14.5-120.9
	s14.5-120.7,14.5-121.1s-11.9-0.5-26.4-0.5h-26.5l-0.5,4.2c-0.4,2.4-3.6,36-7.1,74.8s-6.7,70.5-6.8,70.6s-3.4-33.4-7.2-74.7l-7-74.9
	h-50.2l-1,10.2c-0.6,5.7-3.9,39.4-7.4,75s-6.5,64.6-6.6,64.5c-0.3-0.3-14.3-145.1-14.3-147.8c0-1.8-1-1.9-26.6-1.9h-26.5
	L711.8,157.3z"/>
<g class="st1">
	<path d="M1062.6,71.4c0,11.9-0.3,20.2-0.8,25.1c-0.5,4.9-2.3,9.4-5,13.5c-2.8,4.1-6.6,7.2-11.4,9.4c-4.8,2.2-10.4,3.2-16.8,3.2
		c-6.1,0-11.5-1.1-16.3-3.1c-4.8-2.1-8.7-5.2-11.6-9.3c-2.9-4.1-4.7-8.6-5.2-13.4c-0.6-4.8-0.9-13.3-0.9-25.4V51.3
		c0-11.9,0.3-20.2,0.8-25.1s2.3-9.4,5-13.5c2.8-4.1,6.6-7.2,11.4-9.4c4.8-2.2,10.4-3.2,16.8-3.2c6.1,0,11.5,1.1,16.3,3.1
		c4.8,2.1,8.7,5.2,11.6,9.3c2.9,4.1,4.7,8.6,5.2,13.4c0.6,4.8,0.9,13.3,0.9,25.4L1062.6,71.4L1062.6,71.4z M1033.2,32.8
		c0-5.5-0.3-9-0.9-10.5c-0.6-1.6-1.8-2.3-3.6-2.3c-1.6,0-2.7,0.6-3.5,1.9c-0.8,1.3-1.2,4.9-1.2,11v54.9c0,6.9,0.3,11.1,0.8,12.6
		c0.5,1.6,1.8,2.4,3.7,2.4c2,0,3.2-0.9,3.8-2.7c0.6-1.9,0.9-6.2,0.9-13.1V32.8L1033.2,32.8z"/>
</g>
</svg>
