<svg xmlns="http://www.w3.org/2000/svg" viewBox="0 0 237.09 50.69" style="fill:#fff"><defs><style>.cls-1{isolation:isolate;}</style></defs><title>tg2</title><g id="Слой_2" data-name="Слой 2"><g id="Слой_1-2" data-name="Слой 1"><path d="M236.29.46c-.7-.6-1.7-.6-3.5-.1h0c-1.3.4-12.4,4.6-22.3,8.7-8.9,3.7-16.1,6.9-16.9,7.3-1,.3-3,1.2-3.1,2.6-.1.9.7,1.7,2.2,2.4s8.5,3.1,9.9,3.6c.5,1.7,3.5,11.7,3.6,12.3a2.61,2.61,0,0,0,1.1,1.6c.1.1.2.2.3.2a1.42,1.42,0,0,0,.6.2,2.1,2.1,0,0,0,1.1-.4c1.9-1.5,5.1-4.9,6-5.8,4,3.1,8.3,6.6,8.7,7l.1.1a5,5,0,0,0,2.9,1.3,2.92,2.92,0,0,0,.9-.2,3.51,3.51,0,0,0,2.1-2.7,3.93,3.93,0,0,1,.2-.6q2.55-11.25,4.2-19.5c1.1-5.4,1.9-10.7,2.4-13.5a11.6,11.6,0,0,1,.3-1.6C237,2.26,237.09,1.16,236.29.46Zm-32.8,24.4,24-15.9c.1-.1.2-.1.2-.2h0a.1.1,0,0,0,.1-.1.1.1,0,0,0,.1-.1c-.1.1-.1.2-.2.3l-6.1,5.7c-4.2,3.9-9.8,9-13.5,12.3V27l-.1.1a.1.1,0,0,1-.1.1c0,.1,0,.1-.1.1v.2c-.3,2.8-.7,7.7-.9,9.8v-.1C207,36.56,204.19,26.86,203.49,24.86Z"/><g class="cls-1"><path d="M24.74,12.79H14.46V41.33h-4.2V12.79H0V9.34H24.74Z"/><path d="M36.54,41.77a10.4,10.4,0,0,1-7.87-3.18,11.76,11.76,0,0,1-3-8.49v-.75A14.26,14.26,0,0,1,27,23a10.44,10.44,0,0,1,3.78-4.35A9.51,9.51,0,0,1,36,17.12a8.87,8.87,0,0,1,7.2,3.05c1.72,2,2.57,4.95,2.57,8.75v1.69H29.71a8.48,8.48,0,0,0,2.05,5.68,6.47,6.47,0,0,0,5,2.16,7,7,0,0,0,3.65-.88A9,9,0,0,0,43,35.24l2.49,1.94A10,10,0,0,1,36.54,41.77ZM36,20.46a5.42,5.42,0,0,0-4.14,1.79,8.67,8.67,0,0,0-2.06,5H41.75V27a7.77,7.77,0,0,0-1.67-4.8A5.1,5.1,0,0,0,36,20.46Z"/><path d="M54.93,41.33H50.87V7.58h4.06Z"/><path d="M71.3,41.77a10.37,10.37,0,0,1-7.86-3.18,11.73,11.73,0,0,1-3-8.49v-.75A14.26,14.26,0,0,1,61.75,23a10.51,10.51,0,0,1,3.78-4.35,9.51,9.51,0,0,1,5.27-1.57A8.87,8.87,0,0,1,78,20.17c1.72,2,2.57,4.95,2.57,8.75v1.69H64.47a8.48,8.48,0,0,0,2,5.68,6.47,6.47,0,0,0,5,2.16,7,7,0,0,0,3.65-.88,9,9,0,0,0,2.61-2.33l2.49,1.94A10,10,0,0,1,71.3,41.77Zm-.5-21.31a5.39,5.39,0,0,0-4.13,1.79,8.61,8.61,0,0,0-2.07,5H76.51V27a7.77,7.77,0,0,0-1.67-4.8A5.09,5.09,0,0,0,70.8,20.46Z"/><path d="M84.31,29.25q0-5.57,2.57-8.85a8.87,8.87,0,0,1,13.6-.21l.2-2.63h3.71v23.2A9.67,9.67,0,0,1,101.66,48a10.13,10.13,0,0,1-7.35,2.66,12.32,12.32,0,0,1-5-1.1,8.63,8.63,0,0,1-3.75-3l2.11-2.44A7.92,7.92,0,0,0,94,47.37a6.22,6.22,0,0,0,4.63-1.67,6.4,6.4,0,0,0,1.66-4.7V39a8.38,8.38,0,0,1-6.66,2.81,8.12,8.12,0,0,1-6.76-3.36C85.17,36.17,84.31,33.11,84.31,29.25Zm4.09.46A10.7,10.7,0,0,0,90,36a5.37,5.37,0,0,0,4.62,2.3,6,6,0,0,0,5.65-3.49V24a6,6,0,0,0-5.61-3.4,5.37,5.37,0,0,0-4.63,2.3C89,24.41,88.4,26.69,88.4,29.71Z"/><path d="M122,21.2a12.42,12.42,0,0,0-2-.15,5.35,5.35,0,0,0-5.42,3.4V41.33h-4.07V17.56h4l.06,2.74a6.35,6.35,0,0,1,5.67-3.18,4.24,4.24,0,0,1,1.8.3Z"/><path d="M139.55,41.33a8.15,8.15,0,0,1-.57-2.5,9.08,9.08,0,0,1-6.77,2.94,8.38,8.38,0,0,1-5.77-2,6.45,6.45,0,0,1-2.25-5A6.72,6.72,0,0,1,127,29q2.82-2.05,8-2h3.95V25.05a4.59,4.59,0,0,0-1.27-3.4,5.13,5.13,0,0,0-3.76-1.26,6,6,0,0,0-3.65,1.1,3.24,3.24,0,0,0-1.47,2.66h-4.09a5.56,5.56,0,0,1,1.27-3.44,8.62,8.62,0,0,1,3.42-2.63,11.63,11.63,0,0,1,4.76-1,9.39,9.39,0,0,1,6.44,2.05A7.44,7.44,0,0,1,143,24.83V35.77a13.35,13.35,0,0,0,.83,5.21v.35Zm-6.75-3.1a7.13,7.13,0,0,0,3.63-1,6,6,0,0,0,2.48-2.57V29.79h-3.19q-7.47,0-7.47,4.38a3.72,3.72,0,0,0,1.28,3A4.93,4.93,0,0,0,132.8,38.23Z"/><path d="M153.17,17.56l.11,2.63a8.78,8.78,0,0,1,7.05-3.07q5,0,6.79,3.82a9.07,9.07,0,0,1,3.09-2.77,9.18,9.18,0,0,1,4.5-1.05q7.81,0,7.95,8.28V41.33h-4.07V25.64a5.43,5.43,0,0,0-1.16-3.81,5.14,5.14,0,0,0-3.91-1.26,5.26,5.26,0,0,0-5.49,5V41.33h-4.09V25.75c0-3.46-1.69-5.18-5.08-5.18a5.44,5.44,0,0,0-5.47,3.4V41.33h-4.06V17.56Z"/></g></g></g></svg>